REM DIRINDEX 1\2,1\3
REM DIRNAME folder01,folder02,folder03
TITLE ""
FILE "Track07.mp3" MP3
  TRACK 01 AUDIO
    TITLE "0:"
    INDEX 01 00:00:00
  TRACK 02 AUDIO
    TITLE "3:cjc140_018"
    INDEX 01 00:00:05
  TRACK 03 AUDIO
    TITLE "2:cjc140_019"
    INDEX 01 00:01:58
  TRACK 04 AUDIO
    TITLE "2:cjc140_020"
    INDEX 01 00:06:55
  TRACK 05 AUDIO
    TITLE "2:cjc140_021"
    INDEX 01 00:10:35
  TRACK 06 AUDIO
    TITLE "0:"
    INDEX 01 00:19:26
